<svg width="20" height="20" viewBox="0 0 20 20" fill="none" xmlns="http://www.w3.org/2000/svg">
<path d="M17.1833 7.04168C16.3083 3.19168 12.95 1.45834 9.99999 1.45834C9.99999 1.45834 9.99999 1.45834 9.99165 1.45834C7.04999 1.45834 3.68332 3.18334 2.80832 7.03334C1.83332 11.3333 4.46665 14.975 6.84999 17.2667C7.73332 18.1167 8.86665 18.5417 9.99999 18.5417C11.1333 18.5417 12.2667 18.1167 13.1417 17.2667C15.525 14.975 18.1583 11.3417 17.1833 7.04168ZM9.99999 11.2167C8.54999 11.2167 7.37499 10.0417 7.37499 8.59168C7.37499 7.14168 8.54999 5.96668 9.99999 5.96668C11.45 5.96668 12.625 7.14168 12.625 8.59168C12.625 10.0417 11.45 11.2167 9.99999 11.2167Z" fill="white"/>
</svg>
